<svg width="271" height="205" viewBox="0 0 271 205" fill="none" xmlns="http://www.w3.org/2000/svg">
<circle cx="135.5" cy="32.5" r="107.5" stroke="#FFC100" stroke-width="56"/>
<path d="M211.191 111.485C211.265 110.097 213.034 109.562 213.864 110.677L218.476 116.868C219.029 117.611 220.119 117.672 220.751 116.995L226.02 111.351C226.968 110.336 228.667 111.063 228.587 112.45L228.139 120.158C228.086 121.082 228.882 121.83 229.801 121.717L237.465 120.781C238.844 120.612 239.678 122.262 238.725 123.273L233.428 128.89C232.793 129.563 232.922 130.648 233.699 131.152L240.171 135.361C241.336 136.119 240.915 137.918 239.535 138.08L231.867 138.978C230.947 139.085 230.349 140 230.619 140.885L232.872 148.27C233.278 149.599 231.798 150.707 230.637 149.943L224.186 145.702C223.412 145.193 222.367 145.51 222.004 146.362L218.984 153.467C218.44 154.745 216.594 154.643 216.196 153.312L213.98 145.916C213.714 145.029 212.71 144.599 211.885 145.019L205.004 148.52C203.765 149.15 202.417 147.886 202.967 146.61L206.024 139.52C206.39 138.67 205.898 137.695 204.995 137.486L197.474 135.745C196.12 135.432 195.901 133.596 197.142 132.972L204.041 129.506C204.868 129.09 205.117 128.027 204.56 127.287L199.918 121.118C199.082 120.008 200.093 118.461 201.446 118.781L208.958 120.56C209.859 120.774 210.734 120.119 210.783 119.194L211.191 111.485Z" fill="#4752A2"/>
<path d="M161.273 140.291C162.056 138.693 164.409 138.952 164.827 140.682L167.15 150.292C167.429 151.444 168.683 152.063 169.768 151.583L178.808 147.581C180.436 146.861 182.072 148.571 181.28 150.165L176.883 159.02C176.355 160.082 176.918 161.363 178.057 161.692L187.555 164.438C189.265 164.932 189.419 167.294 187.788 168.006L178.727 171.963C177.641 172.437 177.249 173.78 177.91 174.764L183.421 182.973C184.413 184.45 183.013 186.359 181.306 185.856L171.821 183.063C170.684 182.728 169.521 183.504 169.394 184.683L168.34 194.514C168.15 196.283 165.85 196.845 164.866 195.363L159.396 187.127C158.74 186.139 157.35 185.986 156.495 186.808L149.368 193.661C148.085 194.894 145.963 193.847 146.161 192.078L147.266 182.253C147.398 181.075 146.431 180.064 145.248 180.144L135.384 180.813C133.608 180.933 132.655 178.766 133.944 177.539L141.106 170.722C141.964 169.905 141.873 168.509 140.916 167.81L132.929 161.981C131.492 160.932 132.155 158.66 133.931 158.549L143.799 157.93C144.982 157.856 145.809 156.728 145.525 155.577L143.154 145.978C142.727 144.251 144.696 142.936 146.128 143.992L154.084 149.861C155.039 150.565 156.398 150.233 156.92 149.168L161.273 140.291Z" fill="#EA6710"/>
</svg>
