<svg width="272" height="272" viewBox="0 0 272 272" fill="none" xmlns="http://www.w3.org/2000/svg">
<circle cx="46" cy="136" r="112" stroke="#FFC100" stroke-width="48"/>
<path d="M204.496 81.7033C205.68 78.4231 210.32 78.4231 211.504 81.7033L218.086 99.9282C218.875 102.114 221.451 103.052 223.461 101.885L240.217 92.1539C243.233 90.4026 246.787 93.3845 245.586 96.6587L238.912 114.85C238.112 117.032 239.483 119.406 241.772 119.804L260.863 123.121C264.299 123.718 265.105 128.286 262.08 130.022L245.275 139.669C243.26 140.825 242.784 143.525 244.282 145.302L256.774 160.114C259.023 162.78 256.703 166.797 253.27 166.183L234.196 162.77C231.909 162.361 229.809 164.123 229.815 166.447L229.863 185.824C229.872 189.311 225.513 190.898 223.278 188.221L210.86 173.346C209.371 171.562 206.629 171.562 205.14 173.346L192.722 188.221C190.487 190.898 186.128 189.311 186.137 185.824L186.185 166.447C186.191 164.123 184.091 162.361 181.804 162.77L162.73 166.183C159.297 166.797 156.977 162.78 159.226 160.114L171.718 145.302C173.216 143.525 172.74 140.825 170.725 139.669L153.92 130.022C150.895 128.286 151.701 123.718 155.137 123.121L174.228 119.804C176.517 119.406 177.888 117.032 177.088 114.85L170.414 96.6587C169.213 93.3845 172.767 90.4026 175.783 92.1539L192.539 101.885C194.549 103.052 197.125 102.114 197.914 99.9282L204.496 81.7033Z" fill="#4752A2"/>
</svg>
