<svg width="783" height="242" viewBox="0 0 783 242" fill="none" xmlns="http://www.w3.org/2000/svg">
<circle cx="746" cy="121" r="77" stroke="#EA6710" stroke-width="24"/>
<path d="M614.753 13.3981C614.994 11.4882 617.492 10.9266 618.527 12.5497L624.278 21.5674C624.968 22.6489 626.469 22.842 627.41 21.9702L635.255 14.7013C636.667 13.393 638.942 14.5686 638.692 16.4773L637.301 27.0818C637.134 28.3537 638.159 29.4662 639.441 29.4032L650.123 28.878C652.046 28.7835 653.033 31.1463 651.614 32.4475L643.732 39.6767C642.786 40.5438 642.857 42.0552 643.879 42.8305L652.4 49.2948C653.933 50.4583 653.171 52.9026 651.247 52.9875L640.562 53.4589C639.281 53.5154 638.363 54.7186 638.648 55.9694L641.02 66.3984C641.447 68.2754 639.292 69.6577 637.764 68.4865L629.276 61.9795C628.258 61.199 626.781 61.5309 626.195 62.672L621.309 72.1858C620.429 73.8982 617.89 73.5715 617.472 71.6923L615.153 61.2515C614.874 59.9993 613.53 59.3046 612.348 59.802L602.489 63.9491C600.715 64.6956 598.979 62.8128 599.867 61.1049L604.801 51.6158C605.393 50.4777 604.81 49.0815 603.585 48.7025L593.367 45.5424C591.528 44.9736 591.408 42.4157 593.187 41.6783L603.066 37.5808C604.251 37.0894 604.701 35.645 604.006 34.5669L598.21 25.5782C597.167 23.9604 598.72 21.9243 600.556 22.5023L610.758 25.7138C611.981 26.0989 613.255 25.2822 613.416 24.0095L614.753 13.3981Z" fill="#4752A2"/>
<path d="M677.308 224.596C669.037 227.347 666.489 230.586 664.335 241.136C664.335 241.365 664.245 241.585 664.086 241.747C663.927 241.909 663.711 242 663.486 242C663.26 242 663.044 241.909 662.885 241.747C662.726 241.585 662.636 241.365 662.636 241.136C660.482 230.586 657.943 227.347 649.655 224.596C649.458 224.495 649.293 224.341 649.177 224.15C649.061 223.96 649 223.74 649 223.516C649 223.292 649.061 223.072 649.177 222.881C649.293 222.691 649.458 222.537 649.655 222.436C657.943 219.693 660.482 216.446 662.636 205.864C662.636 205.635 662.726 205.415 662.885 205.253C663.044 205.091 663.26 205 663.486 205C663.711 205 663.927 205.091 664.086 205.253C664.245 205.415 664.335 205.635 664.335 205.864C666.489 216.414 669.052 219.661 677.316 222.404C677.521 222.502 677.694 222.657 677.816 222.852C677.937 223.046 678.001 223.272 678 223.503C677.999 223.733 677.934 223.958 677.811 224.152C677.688 224.346 677.514 224.5 677.308 224.596Z" fill="#FFC100"/>
<path d="M8.03339 225.236C6.75955 209.333 5.51826 196.065 17.6864 183.778C32.4037 168.916 54.0019 167.307 73.1042 172.059C96.5377 177.888 122.997 197.255 147.801 185.889C169.785 175.816 189.328 147.252 189.078 122.638C188.853 100.503 170.364 90.0516 150.651 100.47C136.788 107.797 129.31 141.641 147.694 147.715C159.987 151.777 174.447 148.509 186.588 145.881C206.079 141.662 224.926 134.881 244.235 129.96C260.84 125.728 299.14 116.982 304.604 142.406C307.464 155.714 297.295 186.207 278.875 174.217C256.703 159.785 274.083 126.628 287.223 113.242C311.723 88.2807 338.771 88.8944 368.791 103.402C397.258 117.159 421.999 136.126 454.794 123.789C483.914 112.835 498.625 76.4292 498.005 46.5622C497.853 39.2331 496.175 31.3859 490.719 26.2119C485.663 21.4174 477.865 19.7795 473.238 26.1696C457.56 47.8207 476.768 85.6221 491.91 101.794C525.001 137.135 581.088 145.856 626.696 139.68" stroke="#FFC100" stroke-width="4" stroke-linecap="round"/>
</svg>
