<svg width="188" height="194" viewBox="0 0 188 194" fill="none" xmlns="http://www.w3.org/2000/svg">
<circle cx="102.5" cy="85.5" r="73.5" stroke="#FFC100" stroke-width="24"/>
<path d="M37.2729 129.291C38.0564 127.693 40.4093 127.952 40.8274 129.682L43.1504 139.292C43.429 140.444 44.6833 141.063 45.7676 140.583L54.8084 136.581C56.4357 135.861 58.072 137.571 57.2805 139.165L52.8826 148.02C52.3552 149.082 52.9181 150.363 54.0573 150.692L63.5554 153.438C65.2649 153.932 65.419 156.294 63.7882 157.006L54.7274 160.963C53.6406 161.437 53.2488 162.78 53.9098 163.764L59.4209 171.973C60.4129 173.45 59.0126 175.359 57.3056 174.856L47.8214 172.063C46.6839 171.728 45.5207 172.504 45.3942 173.683L44.3396 183.514C44.1498 185.283 41.8504 185.845 40.8659 184.363L35.3962 176.127C34.7402 175.139 33.3498 174.986 32.495 175.808L25.3682 182.661C24.0854 183.894 21.9628 182.847 22.1615 181.078L23.2655 171.253C23.3979 170.075 22.431 169.064 21.2479 169.144L11.3835 169.813C9.60809 169.933 8.6554 167.766 9.94432 166.539L17.1055 159.722C17.9644 158.905 17.8734 157.509 16.9155 156.81L8.92928 150.981C7.49186 149.932 8.15492 147.66 9.93095 147.549L19.7986 146.93C20.982 146.856 21.8095 145.728 21.5251 144.577L19.1538 134.978C18.727 133.251 20.6955 131.936 22.1276 132.992L30.0845 138.861C31.0388 139.565 32.3975 139.233 32.9196 138.168L37.2729 129.291Z" fill="#EA6710"/>
</svg>
