<svg width="183" height="195" viewBox="0 0 183 195" fill="none" xmlns="http://www.w3.org/2000/svg">
<circle cx="144.498" cy="71.5" r="59.5" stroke="#FFC100" stroke-width="24"/>
<path d="M75.1844 142.485C75.2579 141.097 77.0272 140.562 77.8572 141.677L82.4688 147.868C83.0219 148.611 84.1125 148.672 84.7444 147.995L90.013 142.351C90.9613 141.336 92.6605 142.063 92.58 143.45L92.1326 151.158C92.079 152.082 92.8755 152.83 93.7946 152.717L101.458 151.781C102.837 151.612 103.671 153.262 102.718 154.273L97.4211 159.89C96.7858 160.563 96.9155 161.648 97.6918 162.152L104.164 166.361C105.329 167.119 104.908 168.918 103.528 169.08L95.8597 169.978C94.94 170.085 94.3423 171 94.6125 171.885L96.8654 179.27C97.2709 180.599 95.7913 181.707 94.6302 180.943L88.179 176.702C87.4052 176.193 86.3598 176.51 85.9975 177.362L82.9767 184.467C82.433 185.745 80.5875 185.643 80.1887 184.312L77.9729 176.916C77.7072 176.029 76.7031 175.599 75.8778 176.019L68.9968 179.52C67.7583 180.15 66.4104 178.886 66.9605 177.61L70.017 170.52C70.3836 169.67 69.8907 168.695 68.9886 168.486L61.467 166.745C60.1133 166.432 59.8937 164.596 61.1353 163.972L68.0339 160.506C68.8613 160.09 69.1102 159.027 68.5534 158.287L63.9107 152.118C63.0751 151.008 64.0866 149.461 65.4388 149.781L72.9515 151.56C73.8525 151.774 74.7269 151.119 74.7759 150.194L75.1844 142.485Z" fill="#4752A2"/>
<path d="M37.2729 82.2912C38.0564 80.6934 40.4093 80.9518 40.8274 82.6816L43.1504 92.2918C43.429 93.4444 44.6833 94.0634 45.7676 93.5834L54.8084 89.5814C56.4357 88.8611 58.072 90.5715 57.2805 92.1653L52.8826 101.02C52.3552 102.082 52.9181 103.363 54.0573 103.692L63.5554 106.438C65.2649 106.932 65.419 109.294 63.7882 110.006L54.7274 113.963C53.6406 114.437 53.2488 115.78 53.9098 116.764L59.4209 124.973C60.4129 126.45 59.0126 128.359 57.3056 127.856L47.8214 125.063C46.6839 124.728 45.5207 125.504 45.3942 126.683L44.3396 136.514C44.1498 138.283 41.8504 138.845 40.8659 137.363L35.3962 129.127C34.7402 128.139 33.3498 127.986 32.495 128.808L25.3682 135.661C24.0854 136.894 21.9628 135.847 22.1615 134.078L23.2655 124.253C23.3979 123.075 22.431 122.064 21.2479 122.144L11.3835 122.813C9.60809 122.933 8.6554 120.766 9.94432 119.539L17.1055 112.722C17.9644 111.905 17.8734 110.509 16.9155 109.81L8.92928 103.981C7.49186 102.932 8.15492 100.66 9.93095 100.549L19.7986 99.9298C20.982 99.8556 21.8095 98.7278 21.5251 97.5766L19.1538 87.9782C18.727 86.2506 20.6955 84.9361 22.1276 85.9924L30.0845 91.8611C31.0388 92.565 32.3975 92.2329 32.9196 91.1682L37.2729 82.2912Z" fill="#EA6710"/>
</svg>
