<svg width="323" height="309" viewBox="0 0 323 309" fill="none" xmlns="http://www.w3.org/2000/svg">
<path d="M231.786 -83.6917C236.611 -93.5312 251.102 -91.9399 253.676 -81.2877L267.982 -22.1046C269.698 -15.0064 277.422 -11.1943 284.1 -14.1502L339.776 -38.7959C349.797 -43.2318 359.875 -32.6987 355 -22.8836L327.916 31.6487C324.668 38.1891 328.135 46.0745 335.15 48.1025L393.643 65.0109C404.171 68.0542 405.12 82.6006 395.077 86.986L339.277 111.351C332.585 114.274 330.172 122.543 334.242 128.606L368.182 179.157C374.29 188.255 365.667 200.008 355.155 196.912L296.748 179.709C289.743 177.646 282.579 182.43 281.8 189.691L275.306 250.231C274.137 261.127 259.976 264.588 253.914 255.459L220.229 204.738C216.189 198.654 207.626 197.714 202.362 202.775L158.473 244.977C150.573 252.573 137.501 246.122 138.725 235.231L145.524 174.725C146.34 167.468 140.385 161.244 133.099 161.737L72.3508 165.854C61.4169 166.595 55.5499 153.251 63.4876 145.695L107.589 103.714C112.878 98.6794 112.317 90.0837 106.419 85.7787L57.2366 49.8843C48.3845 43.4238 52.4678 29.4301 63.4052 28.7441L124.173 24.9329C131.462 24.4758 136.557 17.5307 134.806 10.4412L120.203 -48.6691C117.574 -59.3082 129.697 -67.4033 138.517 -60.8983L187.518 -24.7569C193.394 -20.4222 201.762 -22.4671 204.977 -29.0238L231.786 -83.6917Z" fill="#FFC100"/>
<path d="M49.7831 120.895C35.2368 125.655 30.7568 131.258 26.9681 149.506C26.9681 149.902 26.8108 150.282 26.5307 150.562C26.2507 150.843 25.8708 151 25.4748 151C25.0787 151 24.6989 150.843 24.4188 150.562C24.1387 150.282 23.9814 149.902 23.9814 149.506C20.1927 131.258 15.7265 125.655 1.15256 120.895C0.806167 120.722 0.514903 120.455 0.311354 120.125C0.107805 119.795 0 119.415 0 119.028C0 118.64 0.107805 118.26 0.311354 117.93C0.514903 117.6 0.806167 117.334 1.15256 117.16C15.7265 112.415 20.1927 106.798 23.9814 88.4942C23.9814 88.0979 24.1387 87.7178 24.4188 87.4376C24.6989 87.1574 25.0787 87 25.4748 87C25.8708 87 26.2507 87.1574 26.5307 87.4376C26.8108 87.7178 26.9681 88.0979 26.9681 88.4942C30.7568 106.742 35.2645 112.359 49.797 117.105C50.1577 117.274 50.4626 117.542 50.6758 117.879C50.889 118.215 51.0014 118.606 51 119.004C50.9985 119.403 50.8832 119.793 50.6676 120.128C50.452 120.463 50.1451 120.729 49.7831 120.895Z" fill="#4752A2"/>
<path d="M109.093 217.422C98.2549 220.991 94.9168 225.193 92.0939 238.879C92.0939 239.177 91.9767 239.462 91.768 239.672C91.5593 239.882 91.2763 240 90.9812 240C90.6861 240 90.4031 239.882 90.1944 239.672C89.9857 239.462 89.8685 239.177 89.8685 238.879C87.0456 225.193 83.7178 220.991 72.8588 217.422C72.6007 217.291 72.3837 217.091 72.232 216.844C72.0803 216.596 72 216.311 72 216.021C72 215.73 72.0803 215.445 72.232 215.198C72.3837 214.95 72.6007 214.75 72.8588 214.62C83.7178 211.061 87.0456 206.848 89.8685 193.121C89.8685 192.823 89.9857 192.538 90.1944 192.328C90.4031 192.118 90.6861 192 90.9812 192C91.2763 192 91.5593 192.118 91.768 192.328C91.9767 192.538 92.0939 192.823 92.0939 193.121C94.9168 206.807 98.2755 211.019 109.104 214.578C109.372 214.705 109.6 214.907 109.758 215.159C109.917 215.411 110.001 215.704 110 216.003C109.999 216.302 109.913 216.594 109.752 216.846C109.592 217.097 109.363 217.297 109.093 217.422Z" fill="#EA6710"/>
</svg>
