<svg width="33" height="40" viewBox="0 0 33 40" fill="none" xmlns="http://www.w3.org/2000/svg">
<path d="M32.2126 21.1846C22.8003 24.1591 19.9014 27.661 17.45 39.0661C17.45 39.3138 17.3481 39.5513 17.1669 39.7265C16.9857 39.9016 16.7399 40 16.4837 40C16.2274 40 15.9816 39.9016 15.8004 39.7265C15.6192 39.5513 15.5174 39.3138 15.5174 39.0661C13.0659 27.661 10.176 24.1591 0.745773 21.1846C0.521637 21.0761 0.333173 20.9094 0.201465 20.7032C0.0697564 20.4971 0 20.2596 0 20.0173C0 19.775 0.0697564 19.5375 0.201465 19.3313C0.333173 19.1252 0.521637 18.9585 0.745773 18.85C10.176 15.8841 13.0659 12.3735 15.5174 0.933852C15.5174 0.686179 15.6192 0.44865 15.8004 0.273519C15.9816 0.0983877 16.2274 0 16.4837 0C16.7399 0 16.9857 0.0983877 17.1669 0.273519C17.3481 0.44865 17.45 0.686179 17.45 0.933852C19.9014 12.339 22.8182 15.8495 32.2216 18.8154C32.455 18.9209 32.6523 19.0888 32.7902 19.2992C32.9281 19.5096 33.0009 19.7537 33 20.0028C32.9991 20.2518 32.9244 20.4954 32.7849 20.7048C32.6454 20.9142 32.4468 21.0807 32.2126 21.1846Z" fill="#FFC100"/>
</svg>
