<svg width="237" height="178" viewBox="0 0 237 178" fill="none" xmlns="http://www.w3.org/2000/svg">
<path d="M88.8709 148.333H148.129C151.905 148.338 155.537 149.785 158.283 152.381C161.028 154.976 162.68 158.523 162.902 162.297C163.123 166.072 161.897 169.788 159.473 172.687C157.05 175.586 153.612 177.45 149.862 177.896L148.129 178H88.8709C85.095 177.996 81.4631 176.548 78.7175 173.953C75.9718 171.357 74.3195 167.81 74.0982 164.036C73.8769 160.262 75.1033 156.545 77.5269 153.646C79.9504 150.747 83.3881 148.884 87.1376 148.437L88.8709 148.333H148.129H88.8709ZM59.2418 74.1667H177.758C181.534 74.1709 185.166 75.6185 187.912 78.2139C190.657 80.8093 192.31 84.3565 192.531 88.1307C192.752 91.9049 191.526 95.6213 189.102 98.5205C186.679 101.42 183.241 103.283 179.492 103.729L177.758 103.833H59.2418C55.4659 103.829 51.834 102.381 49.0884 99.7861C46.3427 97.1907 44.6904 93.6435 44.4691 89.8693C44.2479 86.0951 45.4743 82.3787 47.8978 79.4795C50.3213 76.5803 53.759 74.717 57.5085 74.2705L59.2418 74.1667H177.758H59.2418ZM14.7981 0H222.202C225.978 0.00419349 229.61 1.45187 232.355 4.04725C235.101 6.64262 236.753 10.1898 236.975 13.964C237.196 17.7382 235.969 21.4546 233.546 24.3538C231.122 27.2531 227.685 29.1163 223.935 29.5628L222.202 29.6667H14.7981C11.0222 29.6625 7.39038 28.2148 4.64471 25.6194C1.89904 23.024 0.246768 19.4769 0.0254816 15.7026C-0.195805 11.9284 1.0306 8.21204 3.45411 5.31282C5.87763 2.4136 9.31533 0.55037 13.0648 0.103833L14.7981 0H222.202H14.7981Z" fill="#3B23EE"/>
</svg>
