<svg width="65" height="104" viewBox="0 0 65 104" fill="none" xmlns="http://www.w3.org/2000/svg">
<path d="M9.24228 3.02107C10.3436 -0.0285168 14.6564 -0.0285249 15.7577 3.02107L21.8764 19.9645C22.6102 21.9966 25.0051 22.8683 26.8735 21.7833L42.4517 12.7369C45.2555 11.1086 48.5594 13.8809 47.4428 16.9249L41.2389 33.8373C40.4949 35.8657 41.7691 38.0729 43.8978 38.4427L61.6463 41.5262C64.8408 42.0812 65.5898 46.3286 62.7777 47.9427L47.1542 56.9106C45.2804 57.9861 44.8378 60.496 46.2308 62.1476L57.8449 75.9182C59.9353 78.3967 57.7788 82.1318 54.5872 81.5607L36.8544 78.3879C34.7276 78.0074 32.7753 79.6456 32.7807 81.8062L32.8261 99.8205C32.8342 103.063 28.7814 104.538 26.7036 102.049L15.1589 88.22C13.7743 86.5614 11.2257 86.5614 9.84111 88.22L-1.70355 102.049C-3.78143 104.538 -7.83422 103.063 -7.82607 99.8205L-7.78074 81.8062C-7.77531 79.6456 -9.72761 78.0074 -11.8544 78.3879L-29.5872 81.5607C-32.7788 82.1318 -34.9353 78.3967 -32.8449 75.9182L-21.2308 62.1476C-19.8378 60.496 -20.2804 57.9861 -22.1542 56.9106L-37.7777 47.9427C-40.5898 46.3286 -39.8408 42.0812 -36.6463 41.5262L-18.8978 38.4427C-16.7692 38.0729 -15.4949 35.8657 -16.2389 33.8373L-22.4428 16.9249C-23.5594 13.8809 -20.2555 11.1086 -17.4517 12.7369L-1.87348 21.7833C-0.00509262 22.8683 2.38976 21.9966 3.1236 19.9645L9.24228 3.02107Z" fill="#EA6710"/>
</svg>
