<svg width="170" height="176" viewBox="0 0 170 176" fill="none" xmlns="http://www.w3.org/2000/svg">
<path d="M56.2423 9.02107C57.3436 5.97148 61.6564 5.97148 62.7577 9.02107L68.8764 25.9645C69.6102 27.9966 72.0051 28.8683 73.8735 27.7833L89.4517 18.7369C92.2555 17.1086 95.5594 19.8809 94.4428 22.9249L88.2389 39.8373C87.4949 41.8657 88.7691 44.0729 90.8978 44.4427L108.646 47.5262C111.841 48.0812 112.59 52.3286 109.778 53.9427L94.1542 62.9106C92.2804 63.9861 91.8378 66.496 93.2308 68.1476L104.845 81.9182C106.935 84.3967 104.779 88.1318 101.587 87.5607L83.8544 84.3879C81.7276 84.0074 79.7753 85.6456 79.7807 87.8062L79.8261 105.82C79.8342 109.063 75.7814 110.538 73.7036 108.049L62.1589 94.22C60.7743 92.5614 58.2257 92.5614 56.8411 94.22L45.2965 108.049C43.2186 110.538 39.1658 109.063 39.1739 105.82L39.2193 87.8062C39.2247 85.6456 37.2724 84.0074 35.1456 84.3879L17.4128 87.5607C14.2212 88.1318 12.0647 84.3967 14.1551 81.9182L25.7692 68.1476C27.1622 66.496 26.7196 63.9861 24.8458 62.9106L9.22227 53.9427C6.41024 52.3286 7.15916 48.0812 10.3537 47.5262L28.1022 44.4427C30.2308 44.0729 31.5051 41.8657 30.7611 39.8373L24.5572 22.9249C23.4406 19.8809 26.7445 17.1086 29.5483 18.7369L45.1265 27.7833C46.9949 28.8683 49.3898 27.9966 50.1236 25.9645L56.2423 9.02107Z" fill="#FFC100"/>
<path d="M168.783 113.895C154.237 118.655 149.757 124.258 145.968 142.506C145.968 142.902 145.811 143.282 145.531 143.562C145.251 143.843 144.871 144 144.475 144C144.079 144 143.699 143.843 143.419 143.562C143.139 143.282 142.981 142.902 142.981 142.506C139.193 124.258 134.727 118.655 120.153 113.895C119.806 113.722 119.515 113.455 119.311 113.125C119.108 112.795 119 112.415 119 112.028C119 111.64 119.108 111.26 119.311 110.93C119.515 110.6 119.806 110.334 120.153 110.16C134.727 105.415 139.193 99.7977 142.981 81.4942C142.981 81.0979 143.139 80.7178 143.419 80.4376C143.699 80.1574 144.079 80 144.475 80C144.871 80 145.251 80.1574 145.531 80.4376C145.811 80.7178 145.968 81.0979 145.968 81.4942C149.757 99.7423 154.264 105.359 168.797 110.105C169.158 110.274 169.463 110.542 169.676 110.879C169.889 111.215 170.001 111.606 170 112.004C169.999 112.403 169.883 112.793 169.668 113.128C169.452 113.463 169.145 113.729 168.783 113.895Z" fill="#4752A2"/>
<path d="M114.093 153.422C103.255 156.991 99.9168 161.193 97.0939 174.879C97.0939 175.177 96.9767 175.462 96.768 175.672C96.5593 175.882 96.2763 176 95.9812 176C95.6861 176 95.4031 175.882 95.1944 175.672C94.9857 175.462 94.8685 175.177 94.8685 174.879C92.0456 161.193 88.7178 156.991 77.8588 153.422C77.6007 153.291 77.3837 153.091 77.232 152.844C77.0803 152.597 77 152.312 77 152.021C77 151.73 77.0803 151.445 77.232 151.198C77.3837 150.95 77.6007 150.75 77.8588 150.62C88.7178 147.061 92.0456 142.848 94.8685 129.121C94.8685 128.823 94.9857 128.538 95.1944 128.328C95.4031 128.118 95.6861 128 95.9812 128C96.2763 128 96.5593 128.118 96.768 128.328C96.9767 128.538 97.0939 128.823 97.0939 129.121C99.9168 142.807 103.275 147.019 114.104 150.578C114.372 150.705 114.6 150.907 114.758 151.159C114.917 151.412 115.001 151.704 115 152.003C114.999 152.302 114.913 152.595 114.752 152.846C114.592 153.097 114.363 153.297 114.093 153.422Z" fill="#EA6710"/>
</svg>
