<svg width="242" height="268" viewBox="0 0 242 268" fill="none" xmlns="http://www.w3.org/2000/svg">
<path d="M127.141 6.44061C130.003 -1.48353 141.21 -1.48355 144.071 6.44059L159.97 50.4668C161.877 55.7472 168.1 58.0121 172.955 55.1928L213.434 31.6864C220.719 27.4556 229.304 34.6591 226.403 42.5687L210.282 86.5144C208.349 91.7851 211.66 97.5201 217.191 98.4811L263.31 106.493C271.61 107.935 273.556 118.972 266.249 123.166L225.653 146.469C220.784 149.263 219.634 155.785 223.253 160.076L253.432 195.858C258.864 202.299 253.26 212.004 244.967 210.52L198.89 202.276C193.363 201.287 188.29 205.544 188.304 211.158L188.422 257.967C188.443 266.392 177.913 270.225 172.513 263.757L142.515 227.824C138.918 223.514 132.295 223.514 128.697 227.824L98.6995 263.757C93.3003 270.225 82.7694 266.392 82.7906 257.967L82.9084 211.158C82.9225 205.544 77.8496 201.287 72.3233 202.276L26.246 210.52C17.9527 212.004 12.3493 202.299 17.781 195.858L47.9594 160.076C51.5789 155.785 50.4289 149.263 45.56 146.469L4.96338 123.166C-2.34346 118.972 -0.397451 107.935 7.90322 106.493L54.0214 98.4811C59.5527 97.5201 62.8638 91.7851 60.9304 86.5144L44.8101 42.5687C41.9087 34.6591 50.4935 27.4555 57.7792 31.6864L98.258 55.1928C103.113 58.0121 109.336 55.7472 111.243 50.4669L127.141 6.44061Z" fill="#FFC100"/>
</svg>
